{
	"asset":{
		"generator":"Khronos glTF Blender I/O v4.0.44",
		"version":"2.0"
	},
	"scene":0,
	"scenes":[
		{
			"name":"Ball",
			"nodes":[
				0
			]
		}
	],
	"nodes":[
		{
			"mesh":0,
			"name":"Icosphere.002"
		}
	],
	"materials":[
		{
			"doubleSided":true,
			"name":"blue",
			"pbrMetallicRoughness":{
				"baseColorFactor":[
					0.0551188625395298,
					0.26126742362976074,
					0.7874124050140381,
					1
				],
				"metallicFactor":0,
				"roughnessFactor":0.800000011920929
			}
		}
	],
	"meshes":[
		{
			"name":"Icosphere.002",
			"primitives":[
				{
					"attributes":{
						"POSITION":0,
						"NORMAL":1,
						"TEXCOORD_0":2
					},
					"indices":3,
					"material":0
				}
			]
		}
	],
	"accessors":[
		{
			"bufferView":0,
			"componentType":5126,
			"count":390720,
			"max":[
				0.9918184876441956,
				0.9913380146026611,
				0.991840124130249
			],
			"min":[
				-0.9918188452720642,
				-0.9913381338119507,
				-0.9918401837348938
			],
			"type":"VEC3"
		},
		{
			"bufferView":1,
			"componentType":5126,
			"count":390720,
			"type":"VEC3"
		},
		{
			"bufferView":2,
			"componentType":5126,
			"count":390720,
			"type":"VEC2"
		},
		{
			"bufferView":3,
			"componentType":5125,
			"count":584640,
			"type":"SCALAR"
		}
	],
	"bufferViews":[
		{
			"buffer":0,
			"byteLength":4688640,
			"byteOffset":0,
			"target":34962
		},
		{
			"buffer":0,
			"byteLength":4688640,
			"byteOffset":4688640,
			"target":34962
		},
		{
			"buffer":0,
			"byteLength":3125760,
			"byteOffset":9377280,
			"target":34962
		},
		{
			"buffer":0,
			"byteLength":2338560,
			"byteOffset":12503040,
			"target":34963
		}
	],
	"buffers":[
		{
			"byteLength":14841600,
			"uri":"Ball.bin"
		}
	]
}
