{
	"asset":{
		"generator":"Khronos glTF Blender I/O v4.0.44",
		"version":"2.0"
	},
	"scene":0,
	"scenes":[
		{
			"name":"Flow",
			"nodes":[
				0,
				1
			]
		}
	],
	"nodes":[
		{
			"mesh":0,
			"name":"Cylinder.001",
			"rotation":[
				0.3826834559440613,
				0,
				0,
				0.9238795638084412
			],
			"translation":[
				-0.29218098521232605,
				0,
				0
			]
		},
		{
			"mesh":1,
			"name":"Cylinder.002",
			"rotation":[
				-0.3826834261417389,
				0,
				0,
				0.9238795638084412
			],
			"scale":[
				-1.004832148551941,
				-1.1609326601028442,
				-1.076935887336731
			],
			"translation":[
				0.2778934836387634,
				0.07869338989257812,
				-0.07869338989257812
			]
		}
	],
	"materials":[
		{
			"doubleSided":true,
			"name":"Yellow",
			"pbrMetallicRoughness":{
				"baseColorFactor":[
					1,
					0.2737976312637329,
					0,
					1
				],
				"metallicFactor":0,
				"roughnessFactor":0.800000011920929
			}
		}
	],
	"meshes":[
		{
			"name":"Cylinder.002",
			"primitives":[
				{
					"attributes":{
						"POSITION":0,
						"NORMAL":1,
						"TEXCOORD_0":2
					},
					"indices":3,
					"material":0
				}
			]
		},
		{
			"name":"Cylinder.004",
			"primitives":[
				{
					"attributes":{
						"POSITION":4,
						"NORMAL":5,
						"TEXCOORD_0":6
					},
					"indices":7,
					"material":0
				}
			]
		}
	],
	"accessors":[
		{
			"bufferView":0,
			"componentType":5126,
			"count":853,
			"max":[
				0.28332650661468506,
				1.133898138999939,
				0.6545010209083557
			],
			"min":[
				-0.4497644603252411,
				-1.133898138999939,
				-0.6545118093490601
			],
			"type":"VEC3"
		},
		{
			"bufferView":1,
			"componentType":5126,
			"count":853,
			"type":"VEC3"
		},
		{
			"bufferView":2,
			"componentType":5126,
			"count":853,
			"type":"VEC2"
		},
		{
			"bufferView":3,
			"componentType":5123,
			"count":4560,
			"type":"SCALAR"
		},
		{
			"bufferView":4,
			"componentType":5126,
			"count":2249,
			"max":[
				0.28329330682754517,
				1.1412650346755981,
				0.6543155908584595
			],
			"min":[
				-0.4495018720626831,
				-1.1412649154663086,
				-0.6535581946372986
			],
			"type":"VEC3"
		},
		{
			"bufferView":5,
			"componentType":5126,
			"count":2249,
			"type":"VEC3"
		},
		{
			"bufferView":6,
			"componentType":5126,
			"count":2249,
			"type":"VEC2"
		},
		{
			"bufferView":7,
			"componentType":5123,
			"count":12192,
			"type":"SCALAR"
		}
	],
	"bufferViews":[
		{
			"buffer":0,
			"byteLength":10236,
			"byteOffset":0,
			"target":34962
		},
		{
			"buffer":0,
			"byteLength":10236,
			"byteOffset":10236,
			"target":34962
		},
		{
			"buffer":0,
			"byteLength":6824,
			"byteOffset":20472,
			"target":34962
		},
		{
			"buffer":0,
			"byteLength":9120,
			"byteOffset":27296,
			"target":34963
		},
		{
			"buffer":0,
			"byteLength":26988,
			"byteOffset":36416,
			"target":34962
		},
		{
			"buffer":0,
			"byteLength":26988,
			"byteOffset":63404,
			"target":34962
		},
		{
			"buffer":0,
			"byteLength":17992,
			"byteOffset":90392,
			"target":34962
		},
		{
			"buffer":0,
			"byteLength":24384,
			"byteOffset":108384,
			"target":34963
		}
	],
	"buffers":[
		{
			"byteLength":132768,
			"uri":"Flow.bin"
		}
	]
}
