{
	"asset":{
		"generator":"Khronos glTF Blender I/O v4.0.44",
		"version":"2.0"
	},
	"scene":0,
	"scenes":[
		{
			"name":"Headspace Illusion",
			"nodes":[
				0
			]
		}
	],
	"nodes":[
		{
			"mesh":0,
			"name":"Cube.048",
			"rotation":[
				-0.5,
				0.5,
				-0.5,
				0.5000000596046448
			],
			"translation":[
				0.36444899439811707,
				0.12148305773735046,
				0.12148314714431763
			]
		}
	],
	"materials":[
		{
			"doubleSided":true,
			"name":"grape",
			"pbrMetallicRoughness":{
				"baseColorFactor":[
					0.36607998609542847,
					0.07728300243616104,
					0.6038280129432678,
					1
				],
				"metallicFactor":0,
				"roughnessFactor":0.800000011920929
			}
		}
	],
	"meshes":[
		{
			"name":"Cube.120",
			"primitives":[
				{
					"attributes":{
						"POSITION":0,
						"NORMAL":1,
						"TEXCOORD_0":2
					},
					"indices":3,
					"material":0
				}
			]
		}
	],
	"accessors":[
		{
			"bufferView":0,
			"componentType":5126,
			"count":6213,
			"max":[
				0.7309865951538086,
				0.6074154376983643,
				0.3704146146774292
			],
			"min":[
				-0.6708085536956787,
				-0.7024930119514465,
				-0.8469160795211792
			],
			"type":"VEC3"
		},
		{
			"bufferView":1,
			"componentType":5126,
			"count":6213,
			"type":"VEC3"
		},
		{
			"bufferView":2,
			"componentType":5126,
			"count":6213,
			"type":"VEC2"
		},
		{
			"bufferView":3,
			"componentType":5123,
			"count":9504,
			"type":"SCALAR"
		}
	],
	"bufferViews":[
		{
			"buffer":0,
			"byteLength":74556,
			"byteOffset":0,
			"target":34962
		},
		{
			"buffer":0,
			"byteLength":74556,
			"byteOffset":74556,
			"target":34962
		},
		{
			"buffer":0,
			"byteLength":49704,
			"byteOffset":149112,
			"target":34962
		},
		{
			"buffer":0,
			"byteLength":19008,
			"byteOffset":198816,
			"target":34963
		}
	],
	"buffers":[
		{
			"byteLength":217824,
			"uri":"Headspaceillusion.bin"
		}
	]
}
