{
	"asset":{
		"generator":"Khronos glTF Blender I/O v4.0.44",
		"version":"2.0"
	},
	"scene":0,
	"scenes":[
		{
			"name":"Hexagon",
			"nodes":[
				0
			]
		}
	],
	"nodes":[
		{
			"mesh":0,
			"name":"Circle.003"
		}
	],
	"materials":[
		{
			"doubleSided":true,
			"name":"grape",
			"pbrMetallicRoughness":{
				"baseColorFactor":[
					0.36607998609542847,
					0.07728300243616104,
					0.6038280129432678,
					1
				],
				"metallicFactor":0,
				"roughnessFactor":0.800000011920929
			}
		}
	],
	"meshes":[
		{
			"name":"Circle.001",
			"primitives":[
				{
					"attributes":{
						"POSITION":0,
						"NORMAL":1,
						"TEXCOORD_0":2
					},
					"indices":3,
					"material":0
				}
			]
		}
	],
	"accessors":[
		{
			"bufferView":0,
			"componentType":5126,
			"count":4494,
			"max":[
				1.4377171993255615,
				0.5580796003341675,
				1.720987319946289
			],
			"min":[
				-1.4620156288146973,
				-0.16760438680648804,
				-1.7801011800765991
			],
			"type":"VEC3"
		},
		{
			"bufferView":1,
			"componentType":5126,
			"count":4494,
			"type":"VEC3"
		},
		{
			"bufferView":2,
			"componentType":5126,
			"count":4494,
			"type":"VEC2"
		},
		{
			"bufferView":3,
			"componentType":5123,
			"count":6714,
			"type":"SCALAR"
		}
	],
	"bufferViews":[
		{
			"buffer":0,
			"byteLength":53928,
			"byteOffset":0,
			"target":34962
		},
		{
			"buffer":0,
			"byteLength":53928,
			"byteOffset":53928,
			"target":34962
		},
		{
			"buffer":0,
			"byteLength":35952,
			"byteOffset":107856,
			"target":34962
		},
		{
			"buffer":0,
			"byteLength":13428,
			"byteOffset":143808,
			"target":34963
		}
	],
	"buffers":[
		{
			"byteLength":157236,
			"uri":"Hexagon.bin"
		}
	]
}
