{
	"asset":{
		"generator":"Khronos glTF Blender I/O v4.0.44",
		"version":"2.0"
	},
	"scene":0,
	"scenes":[
		{
			"name":"Intersect box",
			"nodes":[
				0,
				1,
				2
			]
		}
	],
	"nodes":[
		{
			"mesh":0,
			"name":"Plane.015",
			"rotation":[
				0,
				-0.7071068286895752,
				0.7071068286895752,
				1.306566446146462e-07
			],
			"scale":[
				1.044231653213501,
				1.044231653213501,
				1.2530779838562012
			]
		},
		{
			"mesh":1,
			"name":"Plane.013",
			"rotation":[
				-0.7071069478988647,
				-0.7071065902709961,
				0,
				3.090862321641907e-08
			],
			"scale":[
				1.044231653213501,
				1.044231653213501,
				1.2530779838562012
			]
		},
		{
			"mesh":2,
			"name":"Plane.001",
			"rotation":[
				0,
				-0.7071065902709961,
				0,
				0.7071069478988647
			],
			"scale":[
				1.044231653213501,
				1.044231653213501,
				1.2530779838562012
			]
		}
	],
	"materials":[
		{
			"doubleSided":true,
			"name":"blue",
			"pbrMetallicRoughness":{
				"baseColorFactor":[
					0.0551188625395298,
					0.26126742362976074,
					0.7874124050140381,
					1
				],
				"metallicFactor":0,
				"roughnessFactor":0.800000011920929
			}
		}
	],
	"meshes":[
		{
			"name":"Plane.015",
			"primitives":[
				{
					"attributes":{
						"POSITION":0,
						"NORMAL":1,
						"TEXCOORD_0":2
					},
					"indices":3,
					"material":0
				}
			]
		},
		{
			"name":"Plane.015",
			"primitives":[
				{
					"attributes":{
						"POSITION":4,
						"NORMAL":5,
						"TEXCOORD_0":6
					},
					"indices":3,
					"material":0
				}
			]
		},
		{
			"name":"Plane.015",
			"primitives":[
				{
					"attributes":{
						"POSITION":7,
						"NORMAL":8,
						"TEXCOORD_0":9
					},
					"indices":3,
					"material":0
				}
			]
		}
	],
	"accessors":[
		{
			"bufferView":0,
			"componentType":5126,
			"count":144,
			"max":[
				0.5219975113868713,
				0.24711154401302338,
				1
			],
			"min":[
				-0.5219975113868713,
				-0.24711154401302338,
				-1
			],
			"type":"VEC3"
		},
		{
			"bufferView":1,
			"componentType":5126,
			"count":144,
			"type":"VEC3"
		},
		{
			"bufferView":2,
			"componentType":5126,
			"count":144,
			"type":"VEC2"
		},
		{
			"bufferView":3,
			"componentType":5123,
			"count":564,
			"type":"SCALAR"
		},
		{
			"bufferView":4,
			"componentType":5126,
			"count":144,
			"max":[
				0.5219975113868713,
				0.24711154401302338,
				1
			],
			"min":[
				-0.5219975113868713,
				-0.24711154401302338,
				-1
			],
			"type":"VEC3"
		},
		{
			"bufferView":5,
			"componentType":5126,
			"count":144,
			"type":"VEC3"
		},
		{
			"bufferView":6,
			"componentType":5126,
			"count":144,
			"type":"VEC2"
		},
		{
			"bufferView":7,
			"componentType":5126,
			"count":144,
			"max":[
				0.5219975113868713,
				0.24711154401302338,
				1
			],
			"min":[
				-0.5219975113868713,
				-0.24711154401302338,
				-1
			],
			"type":"VEC3"
		},
		{
			"bufferView":8,
			"componentType":5126,
			"count":144,
			"type":"VEC3"
		},
		{
			"bufferView":9,
			"componentType":5126,
			"count":144,
			"type":"VEC2"
		}
	],
	"bufferViews":[
		{
			"buffer":0,
			"byteLength":1728,
			"byteOffset":0,
			"target":34962
		},
		{
			"buffer":0,
			"byteLength":1728,
			"byteOffset":1728,
			"target":34962
		},
		{
			"buffer":0,
			"byteLength":1152,
			"byteOffset":3456,
			"target":34962
		},
		{
			"buffer":0,
			"byteLength":1128,
			"byteOffset":4608,
			"target":34963
		},
		{
			"buffer":0,
			"byteLength":1728,
			"byteOffset":5736,
			"target":34962
		},
		{
			"buffer":0,
			"byteLength":1728,
			"byteOffset":7464,
			"target":34962
		},
		{
			"buffer":0,
			"byteLength":1152,
			"byteOffset":9192,
			"target":34962
		},
		{
			"buffer":0,
			"byteLength":1728,
			"byteOffset":10344,
			"target":34962
		},
		{
			"buffer":0,
			"byteLength":1728,
			"byteOffset":12072,
			"target":34962
		},
		{
			"buffer":0,
			"byteLength":1152,
			"byteOffset":13800,
			"target":34962
		}
	],
	"buffers":[
		{
			"byteLength":14952,
			"uri":"Intersectbox.bin"
		}
	]
}
