{
	"asset":{
		"generator":"Khronos glTF Blender I/O v4.0.44",
		"version":"2.0"
	},
	"extensionsUsed":[
		"KHR_materials_specular",
		"KHR_materials_ior"
	],
	"scene":0,
	"scenes":[
		{
			"name":"Line",
			"nodes":[
				0
			]
		},
		{
			"name":"Scene"
		}
	],
	"nodes":[
		{
			"mesh":0,
			"name":"NurbsPath"
		}
	],
	"materials":[
		{
			"doubleSided":true,
			"extensions":{
				"KHR_materials_specular":{
					"specularFactor":0.800000011920929
				},
				"KHR_materials_ior":{
					"ior":1.4500000476837158
				}
			},
			"name":"red.003",
			"pbrMetallicRoughness":{
				"baseColorFactor":[
					0.7873820066452026,
					0.002185163786634803,
					0,
					1
				],
				"metallicFactor":0,
				"roughnessFactor":0.800000011920929
			}
		}
	],
	"meshes":[
		{
			"name":"NurbsPath",
			"primitives":[
				{
					"attributes":{
						"POSITION":0,
						"NORMAL":1,
						"TEXCOORD_0":2
					},
					"indices":3,
					"material":0
				}
			]
		}
	],
	"accessors":[
		{
			"bufferView":0,
			"componentType":5126,
			"count":23678,
			"max":[
				2.051555633544922,
				2.252157688140869,
				2.0447592735290527
			],
			"min":[
				-1.5470353364944458,
				-0.9703503847122192,
				-1.940480351448059
			],
			"type":"VEC3"
		},
		{
			"bufferView":1,
			"componentType":5126,
			"count":23678,
			"type":"VEC3"
		},
		{
			"bufferView":2,
			"componentType":5126,
			"count":23678,
			"type":"VEC2"
		},
		{
			"bufferView":3,
			"componentType":5123,
			"count":133056,
			"type":"SCALAR"
		}
	],
	"bufferViews":[
		{
			"buffer":0,
			"byteLength":284136,
			"byteOffset":0,
			"target":34962
		},
		{
			"buffer":0,
			"byteLength":284136,
			"byteOffset":284136,
			"target":34962
		},
		{
			"buffer":0,
			"byteLength":189424,
			"byteOffset":568272,
			"target":34962
		},
		{
			"buffer":0,
			"byteLength":266112,
			"byteOffset":757696,
			"target":34963
		}
	],
	"buffers":[
		{
			"byteLength":1023808,
			"uri":"Line.bin"
		}
	]
}
