{
	"asset":{
		"generator":"Khronos glTF Blender I/O v4.0.44",
		"version":"2.0"
	},
	"extensionsUsed":[
		"KHR_materials_specular",
		"KHR_materials_ior"
	],
	"scene":0,
	"scenes":[
		{
			"name":"Magnet ball",
			"nodes":[
				0
			]
		}
	],
	"nodes":[
		{
			"mesh":0,
			"name":"Icosphere.005",
			"rotation":[
				0.7071068286895752,
				0,
				0,
				0.7071068286895752
			],
			"scale":[
				1.8745213747024536,
				1.8745213747024536,
				1.8745213747024536
			]
		}
	],
	"materials":[
		{
			"doubleSided":true,
			"extensions":{
				"KHR_materials_specular":{
					"specularFactor":0.6000000238418579
				},
				"KHR_materials_ior":{
					"ior":1.4500000476837158
				}
			},
			"name":"green",
			"pbrMetallicRoughness":{
				"baseColorFactor":[
					0.03896927088499069,
					0.5567039251327515,
					0.24700427055358887,
					1
				],
				"metallicFactor":0,
				"roughnessFactor":0.800000011920929
			}
		}
	],
	"meshes":[
		{
			"name":"Icosphere.007",
			"primitives":[
				{
					"attributes":{
						"POSITION":0,
						"NORMAL":1,
						"TEXCOORD_0":2
					},
					"indices":3,
					"material":0
				}
			]
		}
	],
	"accessors":[
		{
			"bufferView":0,
			"componentType":5126,
			"count":68482,
			"max":[
				1.0935266017913818,
				1.106693148612976,
				1.1019253730773926
			],
			"min":[
				-1.0935263633728027,
				-1.106693148612976,
				-1.1019253730773926
			],
			"type":"VEC3"
		},
		{
			"bufferView":1,
			"componentType":5126,
			"count":68482,
			"type":"VEC3"
		},
		{
			"bufferView":2,
			"componentType":5126,
			"count":68482,
			"type":"VEC2"
		},
		{
			"bufferView":3,
			"componentType":5125,
			"count":352788,
			"type":"SCALAR"
		}
	],
	"bufferViews":[
		{
			"buffer":0,
			"byteLength":821784,
			"byteOffset":0,
			"target":34962
		},
		{
			"buffer":0,
			"byteLength":821784,
			"byteOffset":821784,
			"target":34962
		},
		{
			"buffer":0,
			"byteLength":547856,
			"byteOffset":1643568,
			"target":34962
		},
		{
			"buffer":0,
			"byteLength":1411152,
			"byteOffset":2191424,
			"target":34963
		}
	],
	"buffers":[
		{
			"byteLength":3602576,
			"uri":"Magnet%20ball.bin"
		}
	]
}
