{
	"asset":{
		"generator":"Khronos glTF Blender I/O v4.0.44",
		"version":"2.0"
	},
	"extensionsUsed":[
		"KHR_materials_specular",
		"KHR_materials_ior"
	],
	"scene":0,
	"scenes":[
		{
			"name":"O Circle",
			"nodes":[
				0
			]
		}
	],
	"nodes":[
		{
			"mesh":0,
			"name":"Cube.027",
			"rotation":[
				0.08590973168611526,
				0.7055609226226807,
				-0.13288232684135437,
				0.6907573342323303
			],
			"scale":[
				1.0267846584320068,
				1.0267846584320068,
				1.0267845392227173
			],
			"translation":[
				0.2502472400665283,
				0.49085932970046997,
				0.0830066055059433
			]
		}
	],
	"materials":[
		{
			"doubleSided":true,
			"extensions":{
				"KHR_materials_specular":{
					"specularFactor":0.800000011920929
				},
				"KHR_materials_ior":{
					"ior":1.4500000476837158
				}
			},
			"name":"red.003",
			"pbrMetallicRoughness":{
				"baseColorFactor":[
					0.7873820066452026,
					0.002185163786634803,
					0,
					1
				],
				"metallicFactor":0,
				"roughnessFactor":0.800000011920929
			}
		}
	],
	"meshes":[
		{
			"name":"Cube.048",
			"primitives":[
				{
					"attributes":{
						"POSITION":0,
						"NORMAL":1,
						"TEXCOORD_0":2
					},
					"indices":3,
					"material":0
				}
			]
		}
	],
	"accessors":[
		{
			"bufferView":0,
			"componentType":5126,
			"count":12199,
			"max":[
				1.6398696899414062,
				0.680290162563324,
				1.5001150369644165
			],
			"min":[
				-1.640028953552246,
				-0.6802904009819031,
				-1.6891288757324219
			],
			"type":"VEC3"
		},
		{
			"bufferView":1,
			"componentType":5126,
			"count":12199,
			"type":"VEC3"
		},
		{
			"bufferView":2,
			"componentType":5126,
			"count":12199,
			"type":"VEC2"
		},
		{
			"bufferView":3,
			"componentType":5123,
			"count":36408,
			"type":"SCALAR"
		}
	],
	"bufferViews":[
		{
			"buffer":0,
			"byteLength":146388,
			"byteOffset":0,
			"target":34962
		},
		{
			"buffer":0,
			"byteLength":146388,
			"byteOffset":146388,
			"target":34962
		},
		{
			"buffer":0,
			"byteLength":97592,
			"byteOffset":292776,
			"target":34962
		},
		{
			"buffer":0,
			"byteLength":72816,
			"byteOffset":390368,
			"target":34963
		}
	],
	"buffers":[
		{
			"byteLength":463184,
			"uri":"O%20Circle.bin"
		}
	]
}
