{
	"asset":{
		"generator":"Khronos glTF Blender I/O v4.0.44",
		"version":"2.0"
	},
	"scene":0,
	"scenes":[
		{
			"name":"O Spiral",
			"nodes":[
				0
			]
		}
	],
	"nodes":[
		{
			"mesh":0,
			"name":"Plane.006",
			"rotation":[
				-0.13423967361450195,
				0,
				0.12429599463939667,
				0.9831227660179138
			],
			"scale":[
				0.9752243757247925,
				3.4509551525115967,
				0.9752244353294373
			],
			"translation":[
				0.030142653733491898,
				0,
				-0.0301426462829113
			]
		}
	],
	"materials":[
		{
			"doubleSided":true,
			"name":"back.001",
			"pbrMetallicRoughness":{
				"baseColorTexture":{
					"index":0
				},
				"metallicFactor":0,
				"roughnessFactor":0.5
			}
		}
	],
	"meshes":[
		{
			"name":"Plane.005",
			"primitives":[
				{
					"attributes":{
						"POSITION":0,
						"NORMAL":1,
						"TEXCOORD_0":2
					},
					"indices":3,
					"material":0
				}
			]
		}
	],
	"textures":[
		{
			"sampler":0,
			"source":0
		}
	],
	"images":[
		{
			"mimeType":"image/png",
			"name":"O Spiral texture",
			"uri":"O%20Spiral%20texture.png"
		}
	],
	"accessors":[
		{
			"bufferView":0,
			"componentType":5126,
			"count":95584,
			"max":[
				1.917558193206787,
				0.2203550934791565,
				1.9529927968978882
			],
			"min":[
				-1.7088314294815063,
				-0.06276965886354446,
				-1.7327409982681274
			],
			"type":"VEC3"
		},
		{
			"bufferView":1,
			"componentType":5126,
			"count":95584,
			"type":"VEC3"
		},
		{
			"bufferView":2,
			"componentType":5126,
			"count":95584,
			"type":"VEC2"
		},
		{
			"bufferView":3,
			"componentType":5125,
			"count":143376,
			"type":"SCALAR"
		}
	],
	"bufferViews":[
		{
			"buffer":0,
			"byteLength":1147008,
			"byteOffset":0,
			"target":34962
		},
		{
			"buffer":0,
			"byteLength":1147008,
			"byteOffset":1147008,
			"target":34962
		},
		{
			"buffer":0,
			"byteLength":764672,
			"byteOffset":2294016,
			"target":34962
		},
		{
			"buffer":0,
			"byteLength":573504,
			"byteOffset":3058688,
			"target":34963
		}
	],
	"samplers":[
		{
			"magFilter":9729,
			"minFilter":9987
		}
	],
	"buffers":[
		{
			"byteLength":3632192,
			"uri":"O%20Spiral.bin"
		}
	]
}
