{
	"asset":{
		"generator":"Khronos glTF Blender I/O v4.0.44",
		"version":"2.0"
	},
	"scene":0,
	"scenes":[
		{
			"name":"Rock",
			"nodes":[
				0
			]
		}
	],
	"nodes":[
		{
			"mesh":0,
			"name":"Plane.018",
			"rotation":[
				0,
				0.22624507546424866,
				0,
				0.9740704298019409
			],
			"translation":[
				0.14893671870231628,
				0,
				0.09323857724666595
			]
		}
	],
	"materials":[
		{
			"doubleSided":true,
			"name":"grape",
			"pbrMetallicRoughness":{
				"baseColorFactor":[
					0.36607998609542847,
					0.07728300243616104,
					0.6038280129432678,
					1
				],
				"metallicFactor":0,
				"roughnessFactor":0.800000011920929
			}
		}
	],
	"meshes":[
		{
			"name":"Plane.020",
			"primitives":[
				{
					"attributes":{
						"POSITION":0,
						"NORMAL":1,
						"TEXCOORD_0":2
					},
					"indices":3,
					"material":0
				}
			]
		}
	],
	"accessors":[
		{
			"bufferView":0,
			"componentType":5126,
			"count":356,
			"max":[
				1.9318208694458008,
				0.9505572319030762,
				1.5692137479782104
			],
			"min":[
				-1.947110891342163,
				-0.8057349324226379,
				-1.5692137479782104
			],
			"type":"VEC3"
		},
		{
			"bufferView":1,
			"componentType":5126,
			"count":356,
			"type":"VEC3"
		},
		{
			"bufferView":2,
			"componentType":5126,
			"count":356,
			"type":"VEC2"
		},
		{
			"bufferView":3,
			"componentType":5123,
			"count":1944,
			"type":"SCALAR"
		}
	],
	"bufferViews":[
		{
			"buffer":0,
			"byteLength":4272,
			"byteOffset":0,
			"target":34962
		},
		{
			"buffer":0,
			"byteLength":4272,
			"byteOffset":4272,
			"target":34962
		},
		{
			"buffer":0,
			"byteLength":2848,
			"byteOffset":8544,
			"target":34962
		},
		{
			"buffer":0,
			"byteLength":3888,
			"byteOffset":11392,
			"target":34963
		}
	],
	"buffers":[
		{
			"byteLength":15280,
			"uri":"Rock.bin"
		}
	]
}
