{
	"asset":{
		"generator":"Khronos glTF Blender I/O v4.0.44",
		"version":"2.0"
	},
	"scene":0,
	"scenes":[
		{
			"name":"Rounded",
			"nodes":[
				0,
				1
			]
		}
	],
	"nodes":[
		{
			"mesh":0,
			"name":"Mball.001",
			"rotation":[
				-0.4004262685775757,
				-0.7783138155937195,
				-0.16667170822620392,
				0.45399001240730286
			],
			"scale":[
				-0.622067391872406,
				-0.622067391872406,
				-0.622067391872406
			],
			"translation":[
				-0.011005211621522903,
				1.7346429824829102,
				-0.06567735970020294
			]
		},
		{
			"mesh":1,
			"name":"Mball.002",
			"rotation":[
				0.6785979270935059,
				0.030195342376828194,
				-0.5927767157554626,
				0.43267640471458435
			],
			"scale":[
				-0.6220672726631165,
				-0.622067391872406,
				-0.622067391872406
			],
			"translation":[
				0.3729702830314636,
				-0.5424634218215942,
				0.08196106553077698
			]
		}
	],
	"materials":[
		{
			"doubleSided":true,
			"name":"Yellow",
			"pbrMetallicRoughness":{
				"baseColorFactor":[
					1,
					0.2737976312637329,
					0,
					1
				],
				"metallicFactor":0,
				"roughnessFactor":0.800000011920929
			}
		}
	],
	"meshes":[
		{
			"name":"Mesh.001",
			"primitives":[
				{
					"attributes":{
						"POSITION":0,
						"NORMAL":1
					},
					"indices":2,
					"material":0
				}
			]
		},
		{
			"name":"Mesh.002",
			"primitives":[
				{
					"attributes":{
						"POSITION":3,
						"NORMAL":4
					},
					"indices":2,
					"material":0
				}
			]
		}
	],
	"accessors":[
		{
			"bufferView":0,
			"componentType":5126,
			"count":3752,
			"max":[
				1.9282476902008057,
				1.9282567501068115,
				1.9093914031982422
			],
			"min":[
				-3.4711740016937256,
				-3.4711663722991943,
				-3.492332935333252
			],
			"type":"VEC3"
		},
		{
			"bufferView":1,
			"componentType":5126,
			"count":3752,
			"type":"VEC3"
		},
		{
			"bufferView":2,
			"componentType":5123,
			"count":22500,
			"type":"SCALAR"
		},
		{
			"bufferView":3,
			"componentType":5126,
			"count":3752,
			"max":[
				1.9282476902008057,
				1.9282567501068115,
				1.9093914031982422
			],
			"min":[
				-3.4711740016937256,
				-3.4711663722991943,
				-3.492332935333252
			],
			"type":"VEC3"
		},
		{
			"bufferView":4,
			"componentType":5126,
			"count":3752,
			"type":"VEC3"
		}
	],
	"bufferViews":[
		{
			"buffer":0,
			"byteLength":45024,
			"byteOffset":0,
			"target":34962
		},
		{
			"buffer":0,
			"byteLength":45024,
			"byteOffset":45024,
			"target":34962
		},
		{
			"buffer":0,
			"byteLength":45000,
			"byteOffset":90048,
			"target":34963
		},
		{
			"buffer":0,
			"byteLength":45024,
			"byteOffset":135048,
			"target":34962
		},
		{
			"buffer":0,
			"byteLength":45024,
			"byteOffset":180072,
			"target":34962
		}
	],
	"buffers":[
		{
			"byteLength":225096,
			"uri":"Rounded.bin"
		}
	]
}
