{
	"asset":{
		"generator":"Khronos glTF Blender I/O v4.0.44",
		"version":"2.0"
	},
	"scene":0,
	"scenes":[
		{
			"name":"Sphere",
			"nodes":[
				0
			]
		}
	],
	"nodes":[
		{
			"mesh":0,
			"name":"Sphere",
			"rotation":[
				-0.30604085326194763,
				0,
				0.2623208165168762,
				0.9151648879051208
			],
			"scale":[
				1.6007518768310547,
				1.6007517576217651,
				1.6007521152496338
			],
			"translation":[
				-0.2781689167022705,
				0,
				-0.10508603602647781
			]
		}
	],
	"materials":[
		{
			"doubleSided":true,
			"name":"Yellow",
			"pbrMetallicRoughness":{
				"baseColorFactor":[
					1,
					0.2737976312637329,
					0,
					1
				],
				"metallicFactor":0,
				"roughnessFactor":0.800000011920929
			}
		}
	],
	"meshes":[
		{
			"name":"Sphere.002",
			"primitives":[
				{
					"attributes":{
						"POSITION":0,
						"NORMAL":1,
						"TEXCOORD_0":2
					},
					"indices":3,
					"material":0
				}
			]
		}
	],
	"accessors":[
		{
			"bufferView":0,
			"componentType":5126,
			"count":53964,
			"max":[
				1.1735771894454956,
				0.9132028222084045,
				1.1735769510269165
			],
			"min":[
				-1.1735914945602417,
				-0.9132029414176941,
				-1.1735914945602417
			],
			"type":"VEC3"
		},
		{
			"bufferView":1,
			"componentType":5126,
			"count":53964,
			"type":"VEC3"
		},
		{
			"bufferView":2,
			"componentType":5126,
			"count":53964,
			"type":"VEC2"
		},
		{
			"bufferView":3,
			"componentType":5123,
			"count":287232,
			"type":"SCALAR"
		}
	],
	"bufferViews":[
		{
			"buffer":0,
			"byteLength":647568,
			"byteOffset":0,
			"target":34962
		},
		{
			"buffer":0,
			"byteLength":647568,
			"byteOffset":647568,
			"target":34962
		},
		{
			"buffer":0,
			"byteLength":431712,
			"byteOffset":1295136,
			"target":34962
		},
		{
			"buffer":0,
			"byteLength":574464,
			"byteOffset":1726848,
			"target":34963
		}
	],
	"buffers":[
		{
			"byteLength":2301312,
			"uri":"Sphere.bin"
		}
	]
}
