{
	"asset":{
		"generator":"Khronos glTF Blender I/O v4.0.44",
		"version":"2.0"
	},
	"scene":0,
	"scenes":[
		{
			"name":"Split",
			"nodes":[
				0
			]
		}
	],
	"nodes":[
		{
			"mesh":0,
			"name":"Plane.016",
			"rotation":[
				-0.18548424541950226,
				0.6136484742164612,
				0.6823457479476929,
				0.35133394598960876
			],
			"scale":[
				-0.8128695487976074,
				-0.8128694295883179,
				-0.8128693103790283
			],
			"translation":[
				-0.41339701414108276,
				0.07190315425395966,
				-0.2383788526058197
			]
		}
	],
	"materials":[
		{
			"doubleSided":true,
			"name":"Yellow",
			"pbrMetallicRoughness":{
				"baseColorFactor":[
					1,
					0.2737976312637329,
					0,
					1
				],
				"metallicFactor":0,
				"roughnessFactor":0.800000011920929
			}
		}
	],
	"meshes":[
		{
			"name":"Plane.017",
			"primitives":[
				{
					"attributes":{
						"POSITION":0,
						"NORMAL":1,
						"TEXCOORD_0":2
					},
					"indices":3,
					"material":0
				}
			]
		}
	],
	"accessors":[
		{
			"bufferView":0,
			"componentType":5126,
			"count":7108,
			"max":[
				1.5536084175109863,
				1.554089069366455,
				1.6077909469604492
			],
			"min":[
				-1.5531301498413086,
				-1.554089069366455,
				-1.6077909469604492
			],
			"type":"VEC3"
		},
		{
			"bufferView":1,
			"componentType":5126,
			"count":7108,
			"type":"VEC3"
		},
		{
			"bufferView":2,
			"componentType":5126,
			"count":7108,
			"type":"VEC2"
		},
		{
			"bufferView":3,
			"componentType":5123,
			"count":40596,
			"type":"SCALAR"
		}
	],
	"bufferViews":[
		{
			"buffer":0,
			"byteLength":85296,
			"byteOffset":0,
			"target":34962
		},
		{
			"buffer":0,
			"byteLength":85296,
			"byteOffset":85296,
			"target":34962
		},
		{
			"buffer":0,
			"byteLength":56864,
			"byteOffset":170592,
			"target":34962
		},
		{
			"buffer":0,
			"byteLength":81192,
			"byteOffset":227456,
			"target":34963
		}
	],
	"buffers":[
		{
			"byteLength":308648,
			"uri":"Split.bin"
		}
	]
}
