{
	"asset":{
		"generator":"Khronos glTF Blender I/O v4.0.44",
		"version":"2.0"
	},
	"scene":0,
	"scenes":[
		{
			"name":"Star",
			"nodes":[
				0,
				1,
				2
			]
		}
	],
	"nodes":[
		{
			"mesh":0,
			"name":"Star.004",
			"scale":[
				1.2127723693847656,
				1.2127723693847656,
				1.2127723693847656
			],
			"translation":[
				0,
				0.019952205941081047,
				0
			]
		},
		{
			"mesh":1,
			"name":"Star.002",
			"scale":[
				1.2127723693847656,
				1.2127723693847656,
				1.2127723693847656
			]
		},
		{
			"mesh":2,
			"name":"Star.003",
			"scale":[
				1.2127723693847656,
				1.2127723693847656,
				1.2127723693847656
			]
		}
	],
	"materials":[
		{
			"doubleSided":true,
			"name":"star.002",
			"pbrMetallicRoughness":{
				"baseColorFactor":[
					0.009999999776482582,
					0.14182911813259125,
					0.5695644617080688,
					1
				],
				"metallicFactor":0,
				"roughnessFactor":0.5
			}
		},
		{
			"doubleSided":true,
			"name":"blue",
			"pbrMetallicRoughness":{
				"baseColorFactor":[
					0.0551188625395298,
					0.26126742362976074,
					0.7874124050140381,
					1
				],
				"metallicFactor":0,
				"roughnessFactor":0.800000011920929
			}
		},
		{
			"doubleSided":true,
			"name":"star.003",
			"pbrMetallicRoughness":{
				"baseColorFactor":[
					0,
					0.06969989836215973,
					0.23743250966072083,
					1
				],
				"metallicFactor":0,
				"roughnessFactor":0.5
			}
		}
	],
	"meshes":[
		{
			"name":"Star.004",
			"primitives":[
				{
					"attributes":{
						"POSITION":0,
						"NORMAL":1
					},
					"indices":2,
					"material":0
				}
			]
		},
		{
			"name":"Star.005",
			"primitives":[
				{
					"attributes":{
						"POSITION":3,
						"NORMAL":4
					},
					"indices":5,
					"material":1
				},
				{
					"attributes":{
						"POSITION":6,
						"NORMAL":7
					},
					"indices":8,
					"material":0
				}
			]
		},
		{
			"name":"Star.003",
			"primitives":[
				{
					"attributes":{
						"POSITION":9,
						"NORMAL":10
					},
					"indices":11,
					"material":1
				},
				{
					"attributes":{
						"POSITION":12,
						"NORMAL":13
					},
					"indices":14,
					"material":0
				},
				{
					"attributes":{
						"POSITION":15,
						"NORMAL":16
					},
					"indices":17,
					"material":2
				}
			]
		}
	],
	"accessors":[
		{
			"bufferView":0,
			"componentType":5126,
			"count":34,
			"max":[
				0.762640118598938,
				0.07001461088657379,
				1.6451764106750488
			],
			"min":[
				-0.762640118598938,
				-0.3373258411884308,
				0.5183544754981995
			],
			"type":"VEC3"
		},
		{
			"bufferView":1,
			"componentType":5126,
			"count":34,
			"type":"VEC3"
		},
		{
			"bufferView":2,
			"componentType":5123,
			"count":147,
			"type":"SCALAR"
		},
		{
			"bufferView":3,
			"componentType":5126,
			"count":97,
			"max":[
				1.2291693687438965,
				0.255007266998291,
				1.1754270792007446
			],
			"min":[
				-1.2291722297668457,
				0.07132963091135025,
				-0.053783394396305084
			],
			"type":"VEC3"
		},
		{
			"bufferView":4,
			"componentType":5126,
			"count":97,
			"type":"VEC3"
		},
		{
			"bufferView":5,
			"componentType":5123,
			"count":141,
			"type":"SCALAR"
		},
		{
			"bufferView":6,
			"componentType":5126,
			"count":48,
			"max":[
				0.48126426339149475,
				0.25465303659439087,
				1.182826280593872
			],
			"min":[
				-0.4803451597690582,
				0.07132963091135025,
				0.43793195486068726
			],
			"type":"VEC3"
		},
		{
			"bufferView":7,
			"componentType":5126,
			"count":48,
			"type":"VEC3"
		},
		{
			"bufferView":8,
			"componentType":5123,
			"count":66,
			"type":"SCALAR"
		},
		{
			"bufferView":9,
			"componentType":5126,
			"count":5,
			"max":[
				0.7626403570175171,
				0.255007266998291,
				-0.05378323793411255
			],
			"min":[
				-0.7626397013664246,
				0.255007266998291,
				-0.799465537071228
			],
			"type":"VEC3"
		},
		{
			"bufferView":10,
			"componentType":5126,
			"count":5,
			"type":"VEC3"
		},
		{
			"bufferView":11,
			"componentType":5123,
			"count":6,
			"type":"SCALAR"
		},
		{
			"bufferView":12,
			"componentType":5126,
			"count":12,
			"max":[
				0.7626403570175171,
				0.278012216091156,
				0.5529913902282715
			],
			"min":[
				-0.7626399397850037,
				0.04035235941410065,
				-0.799465537071228
			],
			"type":"VEC3"
		},
		{
			"bufferView":13,
			"componentType":5126,
			"count":12,
			"type":"VEC3"
		},
		{
			"bufferView":14,
			"componentType":5123,
			"count":18,
			"type":"SCALAR"
		},
		{
			"bufferView":15,
			"componentType":5126,
			"count":7,
			"max":[
				0.4256208837032318,
				0.278012216091156,
				0.5450637340545654
			],
			"min":[
				-0.4230726361274719,
				0.06812447309494019,
				-0.357347697019577
			],
			"type":"VEC3"
		},
		{
			"bufferView":16,
			"componentType":5126,
			"count":7,
			"type":"VEC3"
		},
		{
			"bufferView":17,
			"componentType":5123,
			"count":9,
			"type":"SCALAR"
		}
	],
	"bufferViews":[
		{
			"buffer":0,
			"byteLength":408,
			"byteOffset":0,
			"target":34962
		},
		{
			"buffer":0,
			"byteLength":408,
			"byteOffset":408,
			"target":34962
		},
		{
			"buffer":0,
			"byteLength":294,
			"byteOffset":816,
			"target":34963
		},
		{
			"buffer":0,
			"byteLength":1164,
			"byteOffset":1112,
			"target":34962
		},
		{
			"buffer":0,
			"byteLength":1164,
			"byteOffset":2276,
			"target":34962
		},
		{
			"buffer":0,
			"byteLength":282,
			"byteOffset":3440,
			"target":34963
		},
		{
			"buffer":0,
			"byteLength":576,
			"byteOffset":3724,
			"target":34962
		},
		{
			"buffer":0,
			"byteLength":576,
			"byteOffset":4300,
			"target":34962
		},
		{
			"buffer":0,
			"byteLength":132,
			"byteOffset":4876,
			"target":34963
		},
		{
			"buffer":0,
			"byteLength":60,
			"byteOffset":5008,
			"target":34962
		},
		{
			"buffer":0,
			"byteLength":60,
			"byteOffset":5068,
			"target":34962
		},
		{
			"buffer":0,
			"byteLength":12,
			"byteOffset":5128,
			"target":34963
		},
		{
			"buffer":0,
			"byteLength":144,
			"byteOffset":5140,
			"target":34962
		},
		{
			"buffer":0,
			"byteLength":144,
			"byteOffset":5284,
			"target":34962
		},
		{
			"buffer":0,
			"byteLength":36,
			"byteOffset":5428,
			"target":34963
		},
		{
			"buffer":0,
			"byteLength":84,
			"byteOffset":5464,
			"target":34962
		},
		{
			"buffer":0,
			"byteLength":84,
			"byteOffset":5548,
			"target":34962
		},
		{
			"buffer":0,
			"byteLength":18,
			"byteOffset":5632,
			"target":34963
		}
	],
	"buffers":[
		{
			"byteLength":5652,
			"uri":"Star.bin"
		}
	]
}
