{
	"asset":{
		"generator":"Khronos glTF Blender I/O v4.0.44",
		"version":"2.0"
	},
	"scene":0,
	"scenes":[
		{
			"name":"Triangle ball",
			"nodes":[
				0
			]
		}
	],
	"nodes":[
		{
			"mesh":0,
			"name":"Icosphere.001",
			"rotation":[
				0,
				-0.1736481487751007,
				0,
				0.9848077893257141
			]
		}
	],
	"materials":[
		{
			"doubleSided":true,
			"name":"blue",
			"pbrMetallicRoughness":{
				"baseColorFactor":[
					0.0551188625395298,
					0.26126742362976074,
					0.7874124050140381,
					1
				],
				"metallicFactor":0,
				"roughnessFactor":0.800000011920929
			}
		}
	],
	"meshes":[
		{
			"name":"Icosphere.001",
			"primitives":[
				{
					"attributes":{
						"POSITION":0,
						"NORMAL":1,
						"TEXCOORD_0":2
					},
					"indices":3,
					"material":0
				}
			]
		}
	],
	"accessors":[
		{
			"bufferView":0,
			"componentType":5126,
			"count":75636,
			"max":[
				1.7381516695022583,
				1.6028103828430176,
				1.653577208518982
			],
			"min":[
				-1.7381516695022583,
				-1.6028103828430176,
				-1.653577208518982
			],
			"type":"VEC3"
		},
		{
			"bufferView":1,
			"componentType":5126,
			"count":75636,
			"type":"VEC3"
		},
		{
			"bufferView":2,
			"componentType":5126,
			"count":75636,
			"type":"VEC2"
		},
		{
			"bufferView":3,
			"componentType":5125,
			"count":432420,
			"type":"SCALAR"
		}
	],
	"bufferViews":[
		{
			"buffer":0,
			"byteLength":907632,
			"byteOffset":0,
			"target":34962
		},
		{
			"buffer":0,
			"byteLength":907632,
			"byteOffset":907632,
			"target":34962
		},
		{
			"buffer":0,
			"byteLength":605088,
			"byteOffset":1815264,
			"target":34962
		},
		{
			"buffer":0,
			"byteLength":1729680,
			"byteOffset":2420352,
			"target":34963
		}
	],
	"buffers":[
		{
			"byteLength":4150032,
			"uri":"Triangle%20ball.bin"
		}
	]
}
