{
	"asset":{
		"generator":"Khronos glTF Blender I/O v4.0.44",
		"version":"2.0"
	},
	"extensionsUsed":[
		"KHR_materials_specular",
		"KHR_materials_ior"
	],
	"scene":0,
	"scenes":[
		{
			"name":"Triangle",
			"nodes":[
				0,
				1,
				2,
				3,
				4,
				5
			]
		}
	],
	"nodes":[
		{
			"camera":0,
			"name":"Camera.007",
			"rotation":[
				-0.3558676838874817,
				0.275262713432312,
				-0.10835185647010803,
				0.886480987071991
			],
			"translation":[
				20.741310119628906,
				18.94972038269043,
				20.44178009033203
			]
		},
		{
			"mesh":0,
			"name":"Cube.006",
			"rotation":[
				0.7071068286895752,
				0,
				0,
				0.7071068286895752
			],
			"scale":[
				0.73305344581604,
				0.7330535650253296,
				0.7330536246299744
			],
			"translation":[
				-2.2592272758483887,
				0.04780089855194092,
				-2.243082046508789
			]
		},
		{
			"mesh":1,
			"name":"Cube.009",
			"rotation":[
				0.7071068286895752,
				0,
				0,
				0.7071068286895752
			],
			"scale":[
				0.73305344581604,
				0.7330535650253296,
				0.7330536246299744
			],
			"translation":[
				-2.2592272758483887,
				0.04780089855194092,
				-2.243082046508789
			]
		},
		{
			"mesh":2,
			"name":"Cube.010",
			"rotation":[
				0.7071068286895752,
				0,
				0,
				0.7071068286895752
			],
			"scale":[
				0.73305344581604,
				0.7330535650253296,
				0.7330536246299744
			],
			"translation":[
				3.458589553833008,
				0.047800637781620026,
				3.6946516036987305
			]
		},
		{
			"mesh":3,
			"name":"Cube.004",
			"rotation":[
				0.7071068286895752,
				0,
				0,
				0.7071068286895752
			],
			"scale":[
				0.73305344581604,
				0.7330535650253296,
				0.7330536246299744
			],
			"translation":[
				-2.2592272758483887,
				0.04780089855194092,
				-2.243082046508789
			]
		},
		{
			"mesh":4,
			"name":"Cube.001",
			"rotation":[
				0.7071068286895752,
				0,
				0,
				0.7071068286895752
			],
			"scale":[
				0.73305344581604,
				0.7330535650253296,
				0.7330536246299744
			],
			"translation":[
				3.458589792251587,
				3.859679698944092,
				3.694652557373047
			]
		}
	],
	"cameras":[
		{
			"name":"Camera.007",
			"orthographic":{
				"xmag":4.857146263122559,
				"ymag":4.857146263122559,
				"zfar":100,
				"znear":0.10000000149011612
			},
			"type":"orthographic"
		}
	],
	"materials":[
		{
			"doubleSided":true,
			"extensions":{
				"KHR_materials_specular":{
					"specularFactor":0.6000000238418579
				},
				"KHR_materials_ior":{
					"ior":1.4500000476837158
				}
			},
			"name":"green",
			"pbrMetallicRoughness":{
				"baseColorFactor":[
					0.03896927088499069,
					0.5567039251327515,
					0.24700427055358887,
					1
				],
				"metallicFactor":0,
				"roughnessFactor":0.800000011920929
			}
		}
	],
	"meshes":[
		{
			"name":"Cube.018",
			"primitives":[
				{
					"attributes":{
						"POSITION":0,
						"NORMAL":1,
						"TEXCOORD_0":2
					},
					"indices":3,
					"material":0
				}
			]
		},
		{
			"name":"Cube.019",
			"primitives":[
				{
					"attributes":{
						"POSITION":4,
						"NORMAL":5,
						"TEXCOORD_0":6
					},
					"indices":7,
					"material":0
				}
			]
		},
		{
			"name":"Cube.030",
			"primitives":[
				{
					"attributes":{
						"POSITION":8,
						"NORMAL":9,
						"TEXCOORD_0":10
					},
					"indices":11,
					"material":0
				}
			]
		},
		{
			"name":"Cube.017",
			"primitives":[
				{
					"attributes":{
						"POSITION":12,
						"NORMAL":13,
						"TEXCOORD_0":14
					},
					"indices":15,
					"material":0
				}
			]
		},
		{
			"name":"Cube.001",
			"primitives":[
				{
					"attributes":{
						"POSITION":16,
						"NORMAL":17,
						"TEXCOORD_0":18
					},
					"indices":15,
					"material":0
				}
			]
		}
	],
	"accessors":[
		{
			"bufferView":0,
			"componentType":5126,
			"count":258,
			"max":[
				6.200000286102295,
				1,
				1
			],
			"min":[
				1.6000001430511475,
				-1,
				-1
			],
			"type":"VEC3"
		},
		{
			"bufferView":1,
			"componentType":5126,
			"count":258,
			"type":"VEC3"
		},
		{
			"bufferView":2,
			"componentType":5126,
			"count":258,
			"type":"VEC2"
		},
		{
			"bufferView":3,
			"componentType":5123,
			"count":1128,
			"type":"SCALAR"
		},
		{
			"bufferView":4,
			"componentType":5126,
			"count":387,
			"max":[
				8.800000190734863,
				6.400000095367432,
				1
			],
			"min":[
				6.800000190734863,
				-1,
				-1
			],
			"type":"VEC3"
		},
		{
			"bufferView":5,
			"componentType":5126,
			"count":387,
			"type":"VEC3"
		},
		{
			"bufferView":6,
			"componentType":5126,
			"count":387,
			"type":"VEC2"
		},
		{
			"bufferView":7,
			"componentType":5123,
			"count":1692,
			"type":"SCALAR"
		},
		{
			"bufferView":8,
			"componentType":5126,
			"count":258,
			"max":[
				1.0000004768371582,
				1.0000009536743164,
				1
			],
			"min":[
				-0.9999995231628418,
				-0.9999990463256836,
				-3.5999999046325684
			],
			"type":"VEC3"
		},
		{
			"bufferView":9,
			"componentType":5126,
			"count":258,
			"type":"VEC3"
		},
		{
			"bufferView":10,
			"componentType":5126,
			"count":258,
			"type":"VEC2"
		},
		{
			"bufferView":11,
			"componentType":5123,
			"count":1128,
			"type":"SCALAR"
		},
		{
			"bufferView":12,
			"componentType":5126,
			"count":129,
			"max":[
				1,
				1,
				1
			],
			"min":[
				-1,
				-1,
				-1
			],
			"type":"VEC3"
		},
		{
			"bufferView":13,
			"componentType":5126,
			"count":129,
			"type":"VEC3"
		},
		{
			"bufferView":14,
			"componentType":5126,
			"count":129,
			"type":"VEC2"
		},
		{
			"bufferView":15,
			"componentType":5123,
			"count":564,
			"type":"SCALAR"
		},
		{
			"bufferView":16,
			"componentType":5126,
			"count":129,
			"max":[
				1,
				1,
				1.0000004768371582
			],
			"min":[
				-1,
				-1,
				-0.9999995231628418
			],
			"type":"VEC3"
		},
		{
			"bufferView":17,
			"componentType":5126,
			"count":129,
			"type":"VEC3"
		},
		{
			"bufferView":18,
			"componentType":5126,
			"count":129,
			"type":"VEC2"
		}
	],
	"bufferViews":[
		{
			"buffer":0,
			"byteLength":3096,
			"byteOffset":0,
			"target":34962
		},
		{
			"buffer":0,
			"byteLength":3096,
			"byteOffset":3096,
			"target":34962
		},
		{
			"buffer":0,
			"byteLength":2064,
			"byteOffset":6192,
			"target":34962
		},
		{
			"buffer":0,
			"byteLength":2256,
			"byteOffset":8256,
			"target":34963
		},
		{
			"buffer":0,
			"byteLength":4644,
			"byteOffset":10512,
			"target":34962
		},
		{
			"buffer":0,
			"byteLength":4644,
			"byteOffset":15156,
			"target":34962
		},
		{
			"buffer":0,
			"byteLength":3096,
			"byteOffset":19800,
			"target":34962
		},
		{
			"buffer":0,
			"byteLength":3384,
			"byteOffset":22896,
			"target":34963
		},
		{
			"buffer":0,
			"byteLength":3096,
			"byteOffset":26280,
			"target":34962
		},
		{
			"buffer":0,
			"byteLength":3096,
			"byteOffset":29376,
			"target":34962
		},
		{
			"buffer":0,
			"byteLength":2064,
			"byteOffset":32472,
			"target":34962
		},
		{
			"buffer":0,
			"byteLength":2256,
			"byteOffset":34536,
			"target":34963
		},
		{
			"buffer":0,
			"byteLength":1548,
			"byteOffset":36792,
			"target":34962
		},
		{
			"buffer":0,
			"byteLength":1548,
			"byteOffset":38340,
			"target":34962
		},
		{
			"buffer":0,
			"byteLength":1032,
			"byteOffset":39888,
			"target":34962
		},
		{
			"buffer":0,
			"byteLength":1128,
			"byteOffset":40920,
			"target":34963
		},
		{
			"buffer":0,
			"byteLength":1548,
			"byteOffset":42048,
			"target":34962
		},
		{
			"buffer":0,
			"byteLength":1548,
			"byteOffset":43596,
			"target":34962
		},
		{
			"buffer":0,
			"byteLength":1032,
			"byteOffset":45144,
			"target":34962
		}
	],
	"buffers":[
		{
			"byteLength":46176,
			"uri":"Triangle.bin"
		}
	]
}
