{
	"asset":{
		"generator":"Khronos glTF Blender I/O v4.0.44",
		"version":"2.0"
	},
	"extensionsUsed":[
		"KHR_materials_specular",
		"KHR_materials_ior"
	],
	"scene":0,
	"scenes":[
		{
			"name":"Twist",
			"nodes":[
				0
			]
		}
	],
	"nodes":[
		{
			"mesh":0,
			"name":"Plane.001",
			"rotation":[
				0.6532815098762512,
				-0.27059805393218994,
				0.27059808373451233,
				0.6532815098762512
			]
		}
	],
	"materials":[
		{
			"doubleSided":true,
			"extensions":{
				"KHR_materials_specular":{
					"specularFactor":0.6000000238418579
				},
				"KHR_materials_ior":{
					"ior":1.4500000476837158
				}
			},
			"name":"green",
			"pbrMetallicRoughness":{
				"baseColorFactor":[
					0.03896927088499069,
					0.5567039251327515,
					0.24700427055358887,
					1
				],
				"metallicFactor":0,
				"roughnessFactor":0.800000011920929
			}
		}
	],
	"meshes":[
		{
			"name":"Plane",
			"primitives":[
				{
					"attributes":{
						"POSITION":0,
						"NORMAL":1,
						"TEXCOORD_0":2
					},
					"indices":3,
					"material":0
				}
			]
		}
	],
	"accessors":[
		{
			"bufferView":0,
			"componentType":5126,
			"count":5551,
			"max":[
				1.641054391860962,
				2.0715370178222656,
				1.631667971611023
			],
			"min":[
				-1.6577657461166382,
				-1.8856825828552246,
				-1.6053122282028198
			],
			"type":"VEC3"
		},
		{
			"bufferView":1,
			"componentType":5126,
			"count":5551,
			"type":"VEC3"
		},
		{
			"bufferView":2,
			"componentType":5126,
			"count":5551,
			"type":"VEC2"
		},
		{
			"bufferView":3,
			"componentType":5123,
			"count":31920,
			"type":"SCALAR"
		}
	],
	"bufferViews":[
		{
			"buffer":0,
			"byteLength":66612,
			"byteOffset":0,
			"target":34962
		},
		{
			"buffer":0,
			"byteLength":66612,
			"byteOffset":66612,
			"target":34962
		},
		{
			"buffer":0,
			"byteLength":44408,
			"byteOffset":133224,
			"target":34962
		},
		{
			"buffer":0,
			"byteLength":63840,
			"byteOffset":177632,
			"target":34963
		}
	],
	"buffers":[
		{
			"byteLength":241472,
			"uri":"Twist.bin"
		}
	]
}
